# AST/ASF file generated using VICON BodyLanguage
# -----------------------------------------------
:version 1.10
:name VICON
:units
  mass 1.0
  length 0.45
  angle deg
:documentation
   .ast/.asf automatically generated from VICON data using
   VICON BodyBuilder and BodyLanguage model FoxedUp or BRILLIANT.MOD
:root
   order TX TY TZ RX RY RZ
   axis XYZ
   position 0 0 0  
   orientation 0 0 0 
:bonedata
  begin
     id 1 
     name lhipjoint
     direction 0.621036 -0.695554 0.361275 
     length 2.46325 
     axis 0 0 0  XYZ
  end
  begin
     id 2 
     name lfemur
     direction 0.34202 -0.939693 0  
     length 6.54784  
     axis 0 0 20  XYZ
    dof rx ry rz
    limits (-160.0 20.0)
           (-70.0 70.0)
           (-60.0 70.0)
  end
  begin
     id 3 
     name ltibia
     direction 0.34202 -0.939693 0   
     length 7.84737   
     axis 0 0 20   XYZ
    dof rx
    limits (-10.0 170.0)
  end
  begin
     id 4 
     name lfoot
     direction 0.0790693 -0.217241 0.97291   
     length 2.59747   
     axis -90 7.62852e-016 20   XYZ
    dof rx rz
    limits (-45.0 90.0)
           (-70.0 20.0)
  end
  begin
     id 5 
     name ltoes
     direction 1.53572e-011 -4.21898e-011 1   
     length 1.29919   
     axis -90 7.62852e-016 20   XYZ
    dof rx
    limits (-90.0 20.0)
  end
  begin
     id 6 
     name rhipjoint
     direction -0.602353 -0.708375 0.367935   
     length 2.41867  
     axis 0 0 0  XYZ 
  end
  begin
     id 7 
     name rfemur
     direction -0.34202 -0.939693 0   
     length 6.92065   
     axis 0 0 -20   XYZ
    dof rx ry rz
    limits (-160.0 20.0)
           (-70.0 70.0)
           (-70.0 60.0)
  end
  begin
     id 8 
     name rtibia
     direction -0.34202 -0.939693 0   
     length 7.88883   
     axis 0 0 -20   XYZ
    dof rx
    limits (-10.0 170.0)
 end
 begin
     id 9 
     name rfoot
     direction -0.0768692 -0.211196 0.974416   
     length 2.43714  
     axis -90 -7.62852e-016 -20   XYZ
    dof rx rz
    limits (-45.0 90.0)
           (-20.0 70.0)
  end
  begin
     id 10 
     name rtoes
     direction -1.53575e-011 -4.21933e-011 1   
     length 1.22113   
     axis -90 -7.62852e-016 -20   XYZ
    dof rx
    limits (-90.0 20.0)
  end
  begin
     id 11 
     name lowerback
     direction 0.0197937 0.98943 -0.143655   
     length 2.16931   
     axis 0 0 0   XYZ
    dof rx ry rz
    limits (-20.0 45.0)
           (-30.0 30.0)
           (-30.0 30.0)
  end
  begin
     id 12 
     name upperback
     direction -0.00183968 0.999975 0.00684288   
     length 2.17221   
     axis 0 0 0   XYZ
    dof rx ry rz
    limits (-20.0 45.0)
           (-30.0 30.0)
           (-30.0 30.0)
  end
  begin
     id 13 
     name thorax
     direction -0.00950244 0.997208 0.0740685   
     length 2.22549   
     axis 0 0 0   XYZ
    dof rx ry rz
    limits (-20.0 45.0)
           (-30.0 30.0)
           (-30.0 30.0)
  end
  begin
     id 14 
     name lowerneck
     direction 0.0218238 0.996215 0.0841425   
     length 1.77269   
     axis 0 0 0   XYZ
    dof rx ry rz
    limits (-20.0 45.0)
           (-30.0 30.0)
           (-30.0 30.0)
  end
  begin
     id 15 
     name upperneck
     direction -0.00430652 0.994214 -0.107332   
     length 1.76534   
     axis 0 0 0   XYZ
    dof rx ry rz
    limits (-20.0 45.0)
           (-30.0 30.0)
           (-30.0 30.0)
  end
  begin
     id 16
     name head
     direction -0.00328946 0.998959 -0.0454998  
     length 1.82634  
     axis 0 0 0   XYZ
    dof rx ry rz
    limits (-20.0 45.0)
           (-30.0 30.0)
           (-30.0 30.0)
  end
  begin
     id 17 
     name lclavicle
     direction 0.970962 0.239191 0.00450212  
     length 3.84872  
     axis 0 0 0   XYZ
    dof ry rz
    limits (-20.0 10.0)
           (0.0 20.0)
  end
  begin
     id 18 
     name lhumerus
     direction 1 -4.48966e-011 5.74696e-028   
     length 5.22771   
     axis 180 -30 -90   XYZ
    dof rx ry rz
    limits (-60.0 90.0)
           (-90.0 90.0)
           (-90.0 90.0)
  end
  begin
     id 19
     name lradius
     direction 1 -4.4896e-011 4.25109e-027   
     length 3.45251   
     axis 180 -30 -90   XYZ
    dof rx
    limits (-10.0 170.0)
  end
  begin
     id 20
     name lwrist
     direction 1 -4.48971e-011 1.15382e-027   
     length 1.72626   
     axis -5.52449e-016 90 90   XYZ
    dof ry
    limits (-180.0 0.0)
 end
  begin
     id 21 
     name lhand
     direction 1 -4.49034e-011 2.30765e-027   
     length 0.552119   
     axis -1.47248e-015 90 90   XYZ
    dof rx rz
    limits (-90.0 90.0)
           (-45.0 45.0)
  end
  begin
     id 22 
     name lfingers
     direction 1 -4.48951e-011 4.61529e-027   
     length 0.445133   
     axis -2.94495e-015 90 90   XYZ
    dof rx
    limits (0.0 90.0)
  end
  begin
     id 23
     name lthumb
     direction 0.707107 -6.34991e-011 0.707107   
     length 0.639124   
     axis -90 45 2.85299e-015   XYZ
    dof rx rz
    limits (-45.0 45.0)
           (-45.0 45.0)
  end
  begin
     id 24 
     name rclavicle
     direction -0.97424 0.222511 -0.0366699   
     length 3.73439  
     axis 0 0 0   XYZ 
    dof ry rz
    limits (-10.0 20.0)
           (-20.0 0.0)
  end
  begin
     id 25 
     name rhumerus
     direction -1 -4.48956e-011 -4.97258e-028  
     length 5.2398   
     axis 180 30 90   XYZ
    dof rx ry rz
    limits (-90.0 60.0)
           (-90.0 90.0)
           (-90.0 90.0)
  end
  begin
     id 26 
     name rradius
     direction -1 -4.4897e-011 -1.72611e-027   
     length 3.48042   
     axis 180 30 90   XYZ
    dof rx
    limits (-10.0 170.0)
  end
  begin
     id 27 
     name rwrist
     direction -1 -4.48976e-011 1.15382e-027   
     length 1.74021   
     axis -5.52449e-016 -90 -90   XYZ
    dof ry
    limits (-180.0 0.0)
  end
  begin
     id 28
     name rhand
     direction -1 -4.48963e-011 2.30765e-027   
     length 0.618713   
     axis -1.47248e-015 -90 -90   XYZ
    dof rx rz
    limits (-90.0 90.0)
           (-45.0 45.0)
  end
  begin
     id 29
     name rfingers
     direction -1 -4.4888e-011 4.61529e-027   
     length 0.498823   
     axis -2.94495e-015 -90 -90   XYZ
    dof rx
    limits (0.0 90.0)
  end
  begin
     id 30
     name rthumb
     direction -0.707107 -6.34968e-011 0.707107   
     length 0.716213   
     axis -90 -45 -2.85299e-015   XYZ
    dof rx rz
    limits (-45.0 45.0)
           (-45.0 45.0)
  end
:hierarchy
  begin
    root lhipjoint rhipjoint lowerback
    lhipjoint lfemur
    lfemur ltibia
    ltibia lfoot
    lfoot ltoes
    rhipjoint rfemur
    rfemur rtibia
    rtibia rfoot
    rfoot rtoes
    lowerback upperback
    upperback thorax
    thorax lowerneck lclavicle rclavicle
    lowerneck upperneck
    upperneck head
    lclavicle lhumerus
    lhumerus lradius
    lradius lwrist
    lwrist lhand lthumb
    lhand lfingers
    rclavicle rhumerus
    rhumerus rradius
    rradius rwrist
    rwrist rhand rthumb
    rhand rfingers
  end

#!OML:ASF G:\JayActor3\Patient Classification 1\Patient 1\Session 5\male.ASF
:FULLY-SPECIFIED
:DEGREES
1
root -37.1222 17.1906 -6.07681 -42.9389 82.8508 -39.0497
lowerback 6.02863 -1.10474 1.4187
upperback 2.46852 -1.34879 -0.26635
thorax -0.877807 -0.646342 -0.979364
lowerneck -3.99752 1.0106 2.57055
upperneck 3.24926 1.11572 2.83902
head 1.68337 0.663693 0.482522
rclavicle 4.37326e-014 3.97569e-015
rhumerus -36.0869 -10.4161 -83.6563
rradius 29.3336
rwrist 1.32478
rhand -20.2039 -9.36963
rfingers 7.12502
rthumb 6.14293 -39.2606
lclavicle 4.37326e-014 3.97569e-015
lhumerus -31.0236 10.2167 81.9046
lradius 24.3809
lwrist 16.0052
lhand -18.0291 12.5407
lfingers 7.12502
lthumb 8.24223 42.3599
rfemur -70.426 -5.85906 25.9162
rtibia 140.684
rfoot -18.9648 -0.639509
rtoes -36.3381
lfemur 12.8433 19.9454 -19.5476
ltibia 5.40694e-014
lfoot -7.17434 -4.83157
ltoes 20.0869
2
root -37.12 17.1931 -6.08221 -43.0729 82.9192 -39.2318
lowerback 6.0295 -1.12637 1.43155
upperback 2.42168 -1.37753 -0.255855
thorax -0.927278 -0.661748 -0.973273
lowerneck -3.93495 1.01219 2.58526
upperneck 3.22721 1.1211 2.81049
head 1.66532 0.66494 0.470649
rclavicle 1.60022e-014 3.97569e-015
rhumerus -36.1812 -10.2112 -83.7695
rradius 29.5443
rwrist 1.00231
rhand -20.2222 -9.55038
rfingers 7.12502
rthumb 6.12533 -39.4418
lclavicle 1.60022e-014 3.97569e-015
lhumerus -31.0941 10.291 81.9192
lradius 24.3407
lwrist 15.928
lhand -18.0365 12.5991
lfingers 7.12502
lthumb 8.23514 42.4186
rfemur -70.41 -5.98845 25.954
rtibia 140.699
rfoot -19.0418 -0.659154
rtoes -36.3477
lfemur 12.7451 19.896 -19.6397
ltibia 1.59028e-015
lfoot -7.20025 -4.75888
ltoes 19.6535
3
root -37.1187 17.1957 -6.08707 -43.2467 83.0057 -39.4773
lowerback 5.99247 -1.15211 1.42488
upperback 2.39704 -1.41313 -0.240551
thorax -0.932478 -0.680116 -0.951811
lowerneck -3.94255 1.00122 2.61183
upperneck 3.224 1.10703 2.73559
head 1.66612 0.656323 0.442436
rclavicle -3.37934e-015 5.56597e-015
rhumerus -36.1928 -10.1868 -83.8089
rradius 29.6767
rwrist 0.870608
rhand -20.1762 -9.63034
rfingers 7.12502
rthumb 6.16966 -39.5205
lclavicle -3.37934e-015 5.56597e-015
lhumerus -31.1168 10.3217 81.9627
lradius 24.3178
lwrist 15.9173
lhand -18.0105 12.5553
lfingers 7.12502
lthumb 8.26021 42.3738
rfemur -70.4341 -6.16277 25.999
rtibia 140.736
rfoot -19.1206 -0.53796
rtoes -36.2067
lfemur 12.6177 19.8284 -19.7481
ltibia -1.59028e-014
lfoot -7.20844 -4.6864
ltoes 19.3029
4
root -37.116 17.1934 -6.09107 -43.143 82.9694 -39.3687
lowerback 5.96282 -1.13422 1.46312
upperback 2.42028 -1.38708 -0.218142
thorax -0.891734 -0.666421 -0.952858
lowerneck -3.94004 0.987278 2.59844
upperneck 3.1988 1.08998 2.73341
head 1.6575 0.647049 0.443368
rclavicle -7.95139e-016 1.19271e-014
rhumerus -36.1564 -10.2096 -83.8424
rradius 29.7212
rwrist 0.82782
rhand -20.2033 -9.54534
rfingers 7.12502
rthumb 6.14353 -39.4363
lclavicle -7.95139e-016 1.19271e-014
lhumerus -31.109 10.3148 82.0185
lradius 24.2979
lwrist 15.9125
lhand -17.9725 12.58
lfingers 7.12502
lthumb 8.29684 42.397
rfemur -70.4304 -6.00062 26.1669
rtibia 140.812
rfoot -19.1099 -0.802431
rtoes -36.3432
lfemur 12.6257 19.8709 -19.7483
ltibia 6.20208e-014
lfoot -7.20629 -4.68714
ltoes 19.3331
5
root -37.1137 17.193 -6.09542 -43.11 82.9847 -39.3473
lowerback 5.94559 -1.13293 1.47906
upperback 2.42504 -1.38455 -0.203603
thorax -0.877202 -0.664983 -0.94743
lowerneck -3.92725 0.97869 2.60012
upperneck 3.17375 1.08027 2.71222
head 1.64725 0.641095 0.435954
rclavicle -2.33572e-015 0
rhumerus -36.1503 -10.1964 -83.889
rradius 29.8048
rwrist 0.749058
rhand -20.2033 -9.56284
rfingers 7.12502
rthumb 6.14358 -39.4538
lclavicle -2.33572e-015 0
lhumerus -31.1191 10.3115 82.0658
lradius 24.2811
lwrist 15.9167
lhand -17.937 12.5943
lfingers 7.12502
lthumb 8.33118 42.41
rfemur -70.4192 -5.97909 26.267
rtibia 140.872
rfoot -19.1231 -0.966223
rtoes -36.3773
lfemur 12.5966 19.8716 -19.7918
ltibia -9.54166e-015
lfoot -7.20569 -4.66528
ltoes 19.1995
6
root -37.1115 17.1923 -6.09967 -43.0604 82.9867 -39.2937
lowerback 5.9383 -1.12703 1.50195
upperback 2.43677 -1.37518 -0.190597
thorax -0.861037 -0.659944 -0.94781
lowerneck -3.91078 0.969668 2.60417
upperneck 3.1453 1.07005 2.69294
head 1.63527 0.634892 0.428687
rclavicle -5.01931e-015 1.35174e-014
rhumerus -36.1392 -10.2033 -83.9315
rradius 29.8692
rwrist 0.712543
rhand -20.1978 -9.57146
rfingers 7.12502
rthumb 6.14886 -39.4622
lclavicle -5.01931e-015 1.35174e-014
lhumerus -31.1254 10.2906 82.1139
lradius 24.2694
lwrist 15.9364
lhand -17.8975 12.6108
lfingers 7.12502
lthumb 8.36921 42.425
rfemur -70.3961 -5.92212 26.3756
rtibia 140.934
rfoot -19.1209 -1.1651
rtoes -36.4105
lfemur 12.5906 19.883 -19.8191
ltibia -1.59028e-014
lfoot -7.20148 -4.65352
ltoes 19.0841
7
root -37.1092 17.1916 -6.10386 -42.9898 82.9822 -39.2057
lowerback 5.94241 -1.11918 1.52787
upperback 2.45289 -1.36278 -0.180367
thorax -0.846745 -0.653273 -0.952778
lowerneck -3.89694 0.962062 2.61105
upperneck 3.12081 1.06132 2.67506
head 1.62504 0.62961 0.421471
rclavicle 6.60959e-015 3.97569e-015
rhumerus -36.1264 -10.2104 -83.9777
rradius 29.9222
rwrist 0.699094
rhand -20.1893 -9.58498
rfingers 7.12502
rthumb 6.15705 -39.4755
lclavicle 6.60959e-015 3.97569e-015
lhumerus -31.1297 10.2615 82.1596
lradius 24.2615
lwrist 15.9627
lhand -17.8639 12.6386
lfingers 7.12502
lthumb 8.40166 42.4515
rfemur -70.3637 -5.84316 26.4811
rtibia 140.995
rfoot -19.1135 -1.36928
rtoes -36.4421
lfemur 12.6016 19.9011 -19.8374
ltibia 7.95139e-015
lfoot -7.19456 -4.64839
ltoes 18.9711
8
root -37.1068 17.1912 -6.10803 -42.9685 82.9746 -39.1599
lowerback 5.95646 -1.113 1.56067
upperback 2.47048 -1.35196 -0.170463
thorax -0.836665 -0.647335 -0.961662
lowerneck -3.88962 0.956724 2.62245
upperneck 3.10491 1.05499 2.65366
head 1.61877 0.625711 0.412565
rclavicle -3.21534e-014 3.97569e-015
rhumerus -36.1153 -10.2114 -84.0275
rradius 29.9702
rwrist 0.70241
rhand -20.175 -9.61178
rfingers 7.12502
rthumb 6.1709 -39.5019
lclavicle -3.21534e-014 3.97569e-015
lhumerus -31.1331 10.231 82.2013
lradius 24.2557
lwrist 15.9909
lhand -17.8392 12.6723
lfingers 7.12502
lthumb 8.42554 42.4843
rfemur -70.3225 -5.75182 26.5866
rtibia 141.047
rfoot -19.1136 -1.55091
rtoes -36.4654
lfemur 12.6203 19.9173 -19.8456
ltibia -3.18055e-015
lfoot -7.18588 -4.64615
ltoes 18.8355
9
root -37.1043 17.191 -6.11217 -43.0111 82.9616 -39.1738
lowerback 5.97772 -1.10827 1.60353
upperback 2.48797 -1.34233 -0.159725
thorax -0.830915 -0.641944 -0.975112
lowerneck -3.88734 0.95247 2.63909
upperneck 3.09495 1.04964 2.62628
head 1.61537 0.622376 0.401017
rclavicle 3.3197e-014 -8.74653e-015
rhumerus -36.1053 -10.2107 -84.0782
rradius 30.011
rwrist 0.720791
rhand -20.1544 -9.63228
rfingers 7.12502
rthumb 6.19072 -39.5218
lclavicle 3.3197e-014 -8.74653e-015
lhumerus -31.1384 10.2025 82.2379
lradius 24.2527
lwrist 16.0127
lhand -17.8261 12.7
lfingers 7.12502
lthumb 8.43814 42.5115
rfemur -70.2767 -5.6377 26.6974
rtibia 141.087
rfoot -19.1227 -1.70702
rtoes -36.4812
lfemur 12.6424 19.9321 -19.8424
ltibia 6.04305e-014
lfoot -7.17637 -4.64224
ltoes 18.6899
10
root -37.1019 17.1909 -6.11627 -43.0892 82.9519 -39.2244
lowerback 6.00175 -1.10636 1.64733
upperback 2.50365 -1.33635 -0.14895
thorax -0.828688 -0.638411 -0.988733
lowerneck -3.89431 0.95043 2.65557
upperneck 3.09594 1.04661 2.59714
head 1.61714 0.620421 0.389136
rclavicle -1.39646e-014 -3.18055e-015
rhumerus -36.0989 -10.197 -84.1326
rradius 30.0521
rwrist 0.73549
rhand -20.1338 -9.64269
rfingers 7.12502
rthumb 6.21069 -39.5316
lclavicle -1.39646e-014 -3.18055e-015
lhumerus -31.1457 10.1859 82.2669
lradius 24.251
lwrist 16.0197
lhand -17.8223 12.728
lfingers 7.12502
lthumb 8.44182 42.5392
rfemur -70.2358 -5.51585 26.7994
rtibia 141.118
rfoot -19.1456 -1.81304
rtoes -36.49
lfemur 12.6591 19.9416 -19.8397
ltibia 1.27222e-014
lfoot -7.16556 -4.63747
ltoes 18.5294
11
root -37.0996 17.1908 -6.12022 -43.2254 82.9454 -39.3387
lowerback 6.02645 -1.10631 1.69282
upperback 2.51495 -1.33275 -0.136822
thorax -0.831388 -0.636169 -1.0017
lowerneck -3.89746 0.947714 2.67165
upperneck 3.09617 1.04295 2.5653
head 1.618 0.618034 0.376432
rclavicle 7.05686e-015 -2.38542e-015
rhumerus -36.0998 -10.1793 -84.1859
rradius 30.0949
rwrist 0.743687
rhand -20.1195 -9.64304
rfingers 7.12502
rthumb 6.22442 -39.5316
lclavicle 7.05686e-015 -2.38542e-015
lhumerus -31.159 10.1753 82.2898
lradius 24.2531
lwrist 16.0123
lhand -17.8296 12.7415
lfingers 7.12502
lthumb 8.43476 42.5531
rfemur -70.2078 -5.38476 26.8984
rtibia 141.138
rfoot -19.1669 -1.9112
rtoes -36.5003
lfemur 12.6658 19.9439 -19.8368
ltibia -3.33958e-014
lfoot -7.15277 -4.62912
ltoes 18.3605
